<?xml version="1.0" encoding="utf-8"?>
<!-- Generator: Adobe Illustrator 16.0.0, SVG Export Plug-In . SVG Version: 6.00 Build 0)  -->
<!DOCTYPE svg PUBLIC "-//W3C//DTD SVG 1.1//EN" "http://www.w3.org/Graphics/SVG/1.1/DTD/svg11.dtd">
<svg version="1.1" id="图层_1" xmlns="http://www.w3.org/2000/svg" xmlns:xlink="http://www.w3.org/1999/xlink" x="0px" y="0px"
	 width="1660px" height="352.5px" viewBox="10.5 0 1660 352.5" enable-background="new 10.5 0 1660 352.5" xml:space="preserve">
<g>
	<path id="svg_1" fill="#C679D0" d="M79,28l208,0.333C283.667,44.333,258,151,258,151h91c0,0-4.667,68-5.333,86
		c-2,25.334-4.667,43.666-16,70.333C319,322,306.667,330.667,290,334s-82,3-82,3s67.667-6.333,79.333-21.667
		C299,300,303,249.666,303,243c2.667-26.666-1-80-1-80l-92,1l33-126H121v204c0,16-4,40-20,58c-17.333,19.333-66,40-66,40
		s29.667-39,36.333-53C78,273,79,257,79,243V28z"/>
	<path id="svg_2" fill="#C679D0" d="M394,96.082l160.83-0.749L555,13.667h45v80.292l160,0.75v10.625h-70V195
		c4.344,89.303,53.669,129.957,60,134.664c-8.581-1.123-87.665-3.372-100-109.664l-0.004-114.667l-50.164-0.042L600,338.081
		l-45-0.124V105.416l-50-0.124l0.166,114.666c-12,89.333-104.164,108.666-110.166,109.706c7.085-8.207,67.752-53.455,70-134.664
		l-0.169-89.667l-69.498-0.042L395,95.333L394,96.082z"/>
	<path id="svg_3" fill="#C679D0" d="M856.987,25.749c0,0,32.287,0.002,38.013,0L895.251,117h35l0.002,8h-35l-0.5,106.749
		c8.25,0.5,25.02-7.013,29.5-10.5c-5.25,10.5-33.75,51-105,54.5c-2.25-5-6.262-27.502-6.512-28.002
		c31.087-0.741,38.259-2.165,44.259-4.498l0.253-119l-44.751,0.498l-0.002-7.251l44.003-0.247l0.497-91.5H856.987z"/>
	<path id="svg_4" fill="#C679D0" d="M958,31.5h203.25v6L1001.333,37l-0.583,86l153.5,0.5c0.916,8.663,1.749,41.34-0.25,57
		c-9.995,56.642-52,103.5-52,103.5s14.349,29.345,48,55c-30.32-13.327-55.002-40.169-60.25-44.5c-6.747,5.664-22.941,21.01-78.25,44
		c48.312-42.98,59-64,58.75-64c-4.748-4.998-37.925-51.357-56.25-104c22.99-3.332,45.5-6.5,45.25-6.5c0.25,0,5.425,50.185,24.5,90.5
		c1.583-2.998,14.255-21.355,25-71c3.249-13.994-0.25-51.5-0.25-51.5h-107.167l-2.833,70c0,0-3.205,106.514-90.5,137.5
		c34.651-36.983,50-122.834,50.083-137.834L958,31.5z"/>
</g>
<g>
	<defs>
		<filter id="Adobe_OpacityMaskFilter" filterUnits="userSpaceOnUse" x="1213.752" y="22.018" width="215.164" height="292.894">
			<feColorMatrix  type="matrix" values="1 0 0 0 0  0 1 0 0 0  0 0 1 0 0  0 0 0 1 0"/>
		</filter>
	</defs>
	<mask maskUnits="userSpaceOnUse" x="1213.752" y="22.018" width="215.164" height="292.894" id="mask4_1_">
		<path id="svg_6_2_" fill="#FFFFFF" filter="url(#Adobe_OpacityMaskFilter)" d="M1213.752,260.502l143.139-0.007v54.213
			l33.897,0.203l-0.003-53.809h29.657l8.474-11.618l-38.128-0.611V22.018l-177.036,238.478V260.502z"/>
		<path id="svg_5_1_" d="M1356.288,249.219V90.235l-117.421,158.983H1356.288z"/>
	</mask>
	<path id="svg_6_1_" mask="url(#mask4_1_)" fill="#C679D0" d="M1213.752,260.502l143.139-0.007v54.213l33.897,0.203l-0.003-53.809
		h29.657l8.474-11.618l-38.128-0.611V22.018l-177.036,238.478V260.502z"/>
	<defs>
		<filter id="Adobe_OpacityMaskFilter_1_" filterUnits="userSpaceOnUse" x="1443.308" y="24.056" width="195.957" height="299.649">
			<feColorMatrix  type="matrix" values="1 0 0 0 0  0 1 0 0 0  0 0 1 0 0  0 0 0 1 0"/>
		</filter>
	</defs>
	<mask maskUnits="userSpaceOnUse" x="1443.308" y="24.056" width="195.957" height="299.649" id="mask6_1_">
		<path id="svg_3_1_" fill="#FFFFFF" filter="url(#Adobe_OpacityMaskFilter_1_)" d="M1620.179,95.088c0,0,12.711-0.611,12.404-1.223
			c-7.562-83.772-141.322-99.67-174.611-6.115c-20.579,57.274-29.053,192.001,40.553,226.854
			c79.287,33.223,142.133-30.879,140.717-89.886c-1.46-60.739-39.062-94.319-75.061-100.255
			c-35.999-5.936-76.048,12.102-89.666,35.032c3.229-55.644,13.315-89.887,36.412-109.657
			C1548.76,21.101,1607.469,37.61,1620.179,95.088z"/>
		<ellipse id="svg_2_1_" cx="1543.313" cy="223.497" rx="67.484" ry="89.274"/>
	</mask>
	<path id="svg_8" mask="url(#mask6_1_)" fill="#C679D0" d="M1620.179,95.088c0,0,12.711-0.611,12.404-1.223
		c-7.562-83.772-141.322-99.67-174.611-6.115c-20.579,57.274-29.053,192.001,40.553,226.854
		c79.287,33.223,142.133-30.879,140.717-89.886c-1.46-60.739-39.062-94.319-75.061-100.255
		c-35.999-5.936-76.048,12.102-89.666,35.032c3.229-55.644,13.315-89.887,36.412-109.657
		C1548.76,21.101,1607.469,37.61,1620.179,95.088z"/>
</g>
</svg>
